<svg xmlns="http://www.w3.org/2000/svg" viewBox="0 0 200 200">
  <defs>
    <linearGradient id="shieldGrad" x1="0%" y1="0%" x2="0%" y2="100%">
      <stop offset="0%" style="stop-color:#e63946"/>
      <stop offset="100%" style="stop-color:#9d0208"/>
    </linearGradient>
  </defs>

  <!-- Shield shape -->
  <path d="M100 10 L180 40 L180 100 Q180 160 100 190 Q20 160 20 100 L20 40 Z"
        fill="url(#shieldGrad)" stroke="#ffffff" stroke-width="4"/>

  <!-- Inner shield -->
  <path d="M100 25 L165 50 L165 95 Q165 145 100 170 Q35 145 35 95 L35 50 Z"
        fill="none" stroke="#ffffff" stroke-width="2" opacity="0.5"/>

  <!-- AI brain icon (simplified) -->
  <circle cx="100" cy="85" r="25" fill="none" stroke="#ffffff" stroke-width="3"/>
  <path d="M85 85 Q100 70 115 85 Q100 100 85 85" fill="none" stroke="#ffffff" stroke-width="2"/>
  <circle cx="92" cy="82" r="3" fill="#ffffff"/>
  <circle cx="108" cy="82" r="3" fill="#ffffff"/>

  <!-- Lock icon (bottom) -->
  <rect x="88" y="120" width="24" height="18" rx="3" fill="#ffffff"/>
  <path d="M93 120 L93 112 Q93 105 100 105 Q107 105 107 112 L107 120"
        fill="none" stroke="#ffffff" stroke-width="3"/>

  <!-- Scan lines -->
  <line x1="40" y1="155" x2="160" y2="155" stroke="#ffffff" stroke-width="1" opacity="0.3"/>
  <line x1="50" y1="165" x2="150" y2="165" stroke="#ffffff" stroke-width="1" opacity="0.3"/>
  <line x1="60" y1="175" x2="140" y2="175" stroke="#ffffff" stroke-width="1" opacity="0.3"/>

</svg>
